<svg width="127" height="82" viewBox="0 0 127 82" fill="none" xmlns="http://www.w3.org/2000/svg">
<path fill-rule="evenodd" clip-rule="evenodd" d="M123.674 3.63595e-05C116.953 -0.0106984 110.369 2.35577 104.697 6.82107C101.454 9.36969 98.5643 12.5519 96.1417 16.2442C93.152 13.4883 89.7439 11.5081 86.1215 10.4222C83.069 9.50269 79.9129 9.22869 76.7867 9.6118C80.029 10.0078 83.1893 11.1108 86.1215 12.8699C90.6306 15.5712 94.4683 19.7277 97.2309 24.9021C97.8989 23.1768 98.6575 21.5077 99.502 19.9055C102.111 14.9591 105.497 10.7129 109.458 7.41967C114.513 3.21576 120.36 0.704317 126.431 0.12987C125.513 0.0430491 124.594 -0.000260399 123.674 3.63595e-05Z" fill="#0F9AEF"/>
<path fill-rule="evenodd" clip-rule="evenodd" d="M81.7007 38.1874V76.7917H78.9419C77.4708 76.7917 76.2713 75.3293 76.1907 73.4912L76.183 38.1874H70.6653V71.4248C70.6653 77.2208 74.371 81.9208 78.9419 81.9208H87.2184V38.1874H81.7007ZM65.109 48.6834C65.109 42.886 61.4033 38.1874 56.8324 38.1874H48.5558V81.9208H54.0736V62.7874H56.8324C58.3034 62.7874 59.503 64.2552 59.5835 66.0948L59.5913 81.9208H65.109V67.5434C65.1132 66.0394 64.8582 64.5515 64.3612 63.1792C63.8641 61.8068 63.1364 60.5816 62.2265 59.5853C63.1362 58.5891 63.8638 57.3641 64.3608 55.9921C64.8579 54.62 65.1129 53.1324 65.109 51.6286V48.6834ZM59.0472 56.1591C58.7822 56.5391 58.4542 56.8438 58.0855 57.0525C57.7168 57.2612 57.3161 57.3691 56.9108 57.3686H54.0736V43.6541H56.9097C57.3672 43.6534 57.818 43.7907 58.2231 44.054C58.6282 44.3174 58.9754 44.6989 59.2348 45.1656C59.8892 46.2959 60.3251 48.268 60.3251 50.5148C60.3251 52.8463 59.8572 54.8772 59.162 55.9842C59.1246 56.0434 59.0863 56.1017 59.0472 56.1591ZM39.7275 75.0874H45.2452V81.9208H39.7275V75.0874ZM28.6921 38.1874H23.1744V81.9208H36.4169V75.0874H28.6921V38.1874ZM9.73103 63.9286L5.6722 38.1874H0L6.89272 81.9208H12.5682L19.461 38.1874H13.7877L9.73103 63.9286Z" fill="#F97D41"/>
</svg>
